<svg width="21" height="7" viewBox="0 0 21 7" fill="none" xmlns="http://www.w3.org/2000/svg">
<path d="M20.0979 3.32906L20.4515 3.68261C20.5453 3.58885 20.5979 3.46167 20.5979 3.32906C20.5979 3.19645 20.5453 3.06928 20.4515 2.97551L20.0979 3.32906ZM17.2695 0.500633L17.6231 0.14708C17.5532 0.0769365 17.464 0.0291255 17.3669 0.0097079C17.2698 -0.00970967 17.1692 0.000140645 17.0777 0.0380103C16.9862 0.07588 16.908 0.140063 16.853 0.222424C16.798 0.304784 16.7688 0.401612 16.7689 0.500633L17.2695 0.500633ZM17.2695 6.15749L16.7689 6.15749C16.7688 6.25651 16.798 6.35334 16.853 6.4357C16.908 6.51806 16.9862 6.58224 17.0777 6.62011C17.1692 6.65798 17.2698 6.66783 17.3669 6.64841C17.464 6.629 17.5532 6.58118 17.6231 6.51104L17.2695 6.15749ZM17.2695 2.82843L0.29895 2.82843L0.29895 3.82969L17.2695 3.82969V2.82843ZM20.4515 2.97551L17.6231 0.14708L16.916 0.854187L19.7444 3.68261L20.4515 2.97551ZM16.7689 0.500633V6.15749L17.7701 6.15749L17.7701 0.500633L16.7689 0.500633ZM17.6231 6.51104L20.4515 3.68261L19.7444 2.97551L16.916 5.80393L17.6231 6.51104Z" fill="#B76E79"/>
</svg>
