<svg width="8" height="21" viewBox="0 0 8 21" fill="none" xmlns="http://www.w3.org/2000/svg">
<path d="M3.98719 20.5L3.63364 20.8536C3.72741 20.9473 3.85458 21 3.98719 21C4.1198 21 4.24698 20.9473 4.34075 20.8536L3.98719 20.5ZM6.81562 17.6716L7.16917 18.0251C7.23932 17.9552 7.28713 17.8661 7.30655 17.769C7.32596 17.6719 7.31611 17.5712 7.27824 17.4797C7.24037 17.3882 7.17619 17.31 7.09383 17.2551C7.01147 17.2001 6.91464 17.1708 6.81562 17.1709L6.81562 17.6716ZM1.15877 17.6716L1.15877 17.1709C1.05974 17.1708 0.962916 17.2001 0.880556 17.2551C0.798196 17.31 0.734012 17.3882 0.696142 17.4797C0.658272 17.5712 0.648422 17.6719 0.66784 17.769C0.687257 17.8661 0.735069 17.9552 0.805212 18.0251L1.15877 17.6716ZM4.48782 17.6716L4.48783 0.701019L3.48656 0.701019L3.48656 17.6716L4.48782 17.6716ZM4.34075 20.8536L7.16917 18.0251L6.46207 17.318L3.63364 20.1465L4.34075 20.8536ZM6.81562 17.1709L1.15877 17.1709L1.15877 18.1722L6.81562 18.1722L6.81562 17.1709ZM0.805212 18.0251L3.63364 20.8536L4.34075 20.1465L1.51232 17.318L0.805212 18.0251Z" fill="#333333"/>
</svg>
