<svg width="7" height="21" viewBox="0 0 7 21" fill="none" xmlns="http://www.w3.org/2000/svg">
<path d="M3.32907 1.20101L2.97551 0.847456C3.06928 0.753687 3.19646 0.70101 3.32907 0.70101C3.46167 0.70101 3.58885 0.753687 3.68262 0.847456L3.32907 1.20101ZM6.15749 4.02944L6.51105 3.67588C6.58119 3.74578 6.629 3.83492 6.64842 3.93202C6.66784 4.02912 6.65799 4.1298 6.62012 4.22129C6.58225 4.31278 6.51806 4.39097 6.4357 4.44594C6.35334 4.50092 6.25651 4.5302 6.15749 4.53007L6.15749 4.02944ZM0.500639 4.02944L0.500638 4.53007C0.401618 4.5302 0.304789 4.50092 0.222429 4.44594C0.140069 4.39097 0.0758855 4.31278 0.0380156 4.22129C0.000145652 4.1298 -0.00970485 4.02912 0.0097129 3.93202C0.0291307 3.83492 0.0769417 3.74578 0.147085 3.67588L0.500639 4.02944ZM3.8297 4.02944L3.8297 21L2.82844 21L2.82843 4.02944L3.8297 4.02944ZM3.68262 0.847456L6.51105 3.67588L5.80394 4.38299L2.97551 1.55456L3.68262 0.847456ZM6.15749 4.53007L0.500638 4.53007L0.500639 3.52881L6.15749 3.5288L6.15749 4.53007ZM0.147085 3.67588L2.97551 0.847456L3.68262 1.55456L0.854192 4.38299L0.147085 3.67588Z" fill="#333333" fill-opacity="0.4"/>
</svg>
